<?xml version="1.0" encoding="utf-8"?>
<!-- Generator: Adobe Adobe Illustrator 24.2.0, SVG Export Plug-In . SVG Version: 6.00 Build 0)  -->
<svg version="1.1" id="Layer_1" xmlns="http://www.w3.org/2000/svg" xmlns:xlink="http://www.w3.org/1999/xlink" x="0px" y="0px"
	 width="502px" height="148px" viewBox="0 0 502 148" style="enable-background:new 0 0 502 148;" xml:space="preserve">
<style type="text/css">
	.st0{stroke:#FFFFFF;stroke-miterlimit:10;}
	.st1{fill:none;stroke:#404040;stroke-width:7;stroke-miterlimit:10;}
	.st2{fill:none;stroke:#404040;stroke-width:2.5;stroke-linecap:round;stroke-linejoin:round;stroke-miterlimit:10;}
	.st3{fill:none;stroke:#404040;stroke-width:2.5;stroke-miterlimit:10;}
	.st4{fill:none;stroke:#404040;stroke-width:3;stroke-linecap:round;stroke-linejoin:round;stroke-miterlimit:10;}
	.st5{fill:#404040;}
	.st6{fill:none;stroke:#0071BC;stroke-width:7;stroke-miterlimit:10;}
	.st7{fill:none;stroke:#0071BC;stroke-width:2.5;stroke-linecap:round;stroke-linejoin:round;stroke-miterlimit:10;}
	.st8{fill:none;stroke:#0071BC;stroke-width:2.5;stroke-miterlimit:10;}
	.st9{fill:none;stroke:#0071BC;stroke-width:3;stroke-linecap:round;stroke-linejoin:round;stroke-miterlimit:10;}
	.st10{fill:#0071BC;}
	.st11{fill:none;stroke:#FFFFFF;stroke-width:7;stroke-miterlimit:10;}
	.st12{fill:none;stroke:#FFFFFF;stroke-width:2.5;stroke-linecap:round;stroke-linejoin:round;stroke-miterlimit:10;}
	.st13{fill:none;stroke:#FFFFFF;stroke-width:2.5;stroke-miterlimit:10;}
	.st14{fill:none;stroke:#FFFFFF;stroke-width:3;stroke-linecap:round;stroke-linejoin:round;stroke-miterlimit:10;}
	.st15{fill:#FFFFFF;}
</style>
<g>
	<g>
		<g id="Layer_2_8_">
			<g>
				<circle class="st6" cx="74.02" cy="71.66" r="51.5"/>
				<g>
					<g>
						<path class="st2" d="M90.71,65l-34.03-0.26 M74,65.18v34.26 M91.18,71.66l13.88,0.16 M56.42,71.82l-12.68,0.05 M97.77,54.63
							l6.69-14.26 M90.92,61.1l6.86-6.48 M49.9,54.55l6.79,6.39 M43.69,40.64l6.22,13.91 M98.06,88.37l-6.88-6.72 M104.7,102.52
							l-6.64-14.15 M50.22,87.88l-6.91,14.48 M56.42,82.04l-6.2,5.84 M73.81,46.26c2.69,0,4.87,1.9,4.87,4.25 M68.93,50.51
							c0-2.35,2.18-4.25,4.87-4.25 M56.69,60.74l-0.27,21.3 M91.18,82.34L90.92,61.1 M91.12,82.38l0.06-0.04"/>
						<path class="st3" d="M83.29,52.84c2.66,1.76,7.64,5.84,7.64,8.88"/>
						<path class="st3" d="M73.81,51.09c4.98,0,6.52-0.21,9.48,1.75"/>
						<path class="st3" d="M65.23,52.2c2.58-1.54,5.03-1.11,8.58-1.11"/>
						<path class="st3" d="M56.68,61.97c0-3.75,4.29-7.23,8.55-9.77"/>
					</g>
					<path class="st3" d="M74,99.44c-9.8,0-17.58-9.81-17.58-17.4"/>
					<path class="st3" d="M91.18,82.19c0,7.59-7.38,17.25-17.18,17.25"/>
				</g>
				<circle class="st4" cx="74" cy="71.68" r="60.5"/>
			</g>
		</g>
	</g>
	<g>
		<path class="st5" d="M155.13,60.92V18.44h17.1v3.72h-13.02V37.1h12.18v3.54h-12.18v16.5h13.62v3.78H155.13z"/>
		<path class="st5" d="M186.75,32c1.16-1.16,2.48-1.74,3.96-1.74c0.32,0,0.56,0.02,0.72,0.06l-0.12,4.08
			c-0.16-0.04-0.31-0.07-0.45-0.09c-0.14-0.02-0.31-0.03-0.51-0.03c-1,0-1.89,0.34-2.67,1.02c-0.78,0.68-1.43,1.56-1.95,2.64
			s-0.91,2.31-1.17,3.69s-0.39,2.75-0.39,4.11v15.18h-3.96V38.66c0-0.64-0.01-1.33-0.03-2.07c-0.02-0.74-0.04-1.46-0.06-2.16
			c-0.02-0.7-0.04-1.34-0.06-1.92c-0.02-0.58-0.05-1.03-0.09-1.35h3.84c0.08,0.76,0.14,1.71,0.18,2.85
			c0.04,1.14,0.06,2.35,0.06,3.63h0.12C184.73,35.04,185.59,33.16,186.75,32z"/>
		<path class="st5" d="M203.19,32c1.16-1.16,2.48-1.74,3.96-1.74c0.32,0,0.56,0.02,0.72,0.06l-0.12,4.08
			c-0.16-0.04-0.31-0.07-0.45-0.09c-0.14-0.02-0.31-0.03-0.51-0.03c-1,0-1.89,0.34-2.67,1.02c-0.78,0.68-1.43,1.56-1.95,2.64
			s-0.91,2.31-1.17,3.69c-0.26,1.38-0.39,2.75-0.39,4.11v15.18h-3.96V38.66c0-0.64-0.01-1.33-0.03-2.07
			c-0.02-0.74-0.04-1.46-0.06-2.16c-0.02-0.7-0.04-1.34-0.06-1.92c-0.02-0.58-0.05-1.03-0.09-1.35h3.84
			c0.08,0.76,0.14,1.71,0.18,2.85c0.04,1.14,0.06,2.35,0.06,3.63h0.12C201.17,35.04,202.03,33.16,203.19,32z"/>
		<path class="st5" d="M231.45,46.1c0,2.36-0.24,4.5-0.72,6.42s-1.16,3.58-2.04,4.98c-0.88,1.4-1.97,2.48-3.27,3.24
			c-1.3,0.76-2.75,1.14-4.35,1.14c-1.6,0-3.04-0.38-4.32-1.14c-1.28-0.76-2.37-1.84-3.27-3.24c-0.9-1.4-1.59-3.06-2.07-4.98
			c-0.48-1.92-0.72-4.06-0.72-6.42c0-2.36,0.23-4.52,0.69-6.48c0.46-1.96,1.13-3.64,2.01-5.04c0.88-1.4,1.97-2.48,3.27-3.24
			c1.3-0.76,2.77-1.14,4.41-1.14c1.6,0,3.05,0.38,4.35,1.14c1.3,0.76,2.39,1.84,3.27,3.24c0.88,1.4,1.56,3.08,2.04,5.04
			C231.21,41.58,231.45,43.74,231.45,46.1z M227.37,46.04c0-1.76-0.13-3.4-0.39-4.92c-0.26-1.52-0.65-2.83-1.17-3.93
			c-0.52-1.1-1.17-1.97-1.95-2.61c-0.78-0.64-1.71-0.96-2.79-0.96c-1.08,0-2.02,0.32-2.82,0.96c-0.8,0.64-1.45,1.51-1.95,2.61
			c-0.5,1.1-0.88,2.41-1.14,3.93c-0.26,1.52-0.39,3.16-0.39,4.92c0,1.76,0.13,3.38,0.39,4.86c0.26,1.48,0.64,2.78,1.14,3.9
			c0.5,1.12,1.15,1.99,1.95,2.61c0.8,0.62,1.74,0.93,2.82,0.93c1.08,0,2.02-0.31,2.82-0.93c0.8-0.62,1.45-1.49,1.95-2.61
			c0.5-1.12,0.88-2.42,1.14-3.9C227.24,49.42,227.37,47.8,227.37,46.04z"/>
		<path class="st5" d="M245.67,32c1.16-1.16,2.48-1.74,3.96-1.74c0.32,0,0.56,0.02,0.72,0.06l-0.12,4.08
			c-0.16-0.04-0.31-0.07-0.45-0.09c-0.14-0.02-0.31-0.03-0.51-0.03c-1,0-1.89,0.34-2.67,1.02c-0.78,0.68-1.43,1.56-1.95,2.64
			s-0.91,2.31-1.17,3.69s-0.39,2.75-0.39,4.11v15.18h-3.96V38.66c0-0.64-0.01-1.33-0.03-2.07c-0.02-0.74-0.04-1.46-0.06-2.16
			c-0.02-0.7-0.04-1.34-0.06-1.92c-0.02-0.58-0.05-1.03-0.09-1.35h3.84c0.08,0.76,0.14,1.71,0.18,2.85
			c0.04,1.14,0.06,2.35,0.06,3.63h0.12C243.65,35.04,244.51,33.16,245.67,32z"/>
	</g>
	<g>
		<path class="st5" d="M178.53,126.01l-3.79-15.61h-19.23l-3.97,15.61h-6.26l15.87-62.44h8.38l15.43,62.44H178.53z M165.39,69.12
			h-0.35l-8.64,36.33h17.46L165.39,69.12z"/>
		<path class="st5" d="M214.77,126.01V97.79c0-1.35-0.07-2.72-0.22-4.1c-0.15-1.38-0.47-2.65-0.97-3.79
			c-0.5-1.15-1.21-2.09-2.12-2.82c-0.91-0.73-2.1-1.1-3.57-1.1c-1.47,0-2.78,0.4-3.92,1.19c-1.15,0.79-2.12,1.88-2.91,3.26
			c-0.79,1.38-1.41,2.97-1.85,4.76c-0.44,1.79-0.66,3.66-0.66,5.6v25.22h-5.82V93.29c0-0.94-0.02-1.95-0.04-3.04
			c-0.03-1.09-0.06-2.15-0.09-3.17c-0.03-1.03-0.06-1.97-0.09-2.82c-0.03-0.85-0.07-1.51-0.13-1.98h5.64
			c0.12,1.12,0.21,2.47,0.26,4.06c0.06,1.59,0.09,3.09,0.09,4.5h0.18c0.82-2.94,2.17-5.34,4.06-7.19c1.88-1.85,4.23-2.78,7.05-2.78
			c2.35,0,4.25,0.5,5.69,1.5c1.44,1,2.54,2.31,3.31,3.92c0.76,1.62,1.28,3.44,1.54,5.47s0.4,4.04,0.4,6.04v28.22H214.77z"/>
		<path class="st5" d="M256.22,126.01V97.79c0-1.35-0.08-2.72-0.22-4.1c-0.15-1.38-0.47-2.65-0.97-3.79
			c-0.5-1.15-1.21-2.09-2.12-2.82c-0.91-0.73-2.1-1.1-3.57-1.1c-1.47,0-2.78,0.4-3.92,1.19c-1.15,0.79-2.12,1.88-2.91,3.26
			c-0.79,1.38-1.41,2.97-1.85,4.76c-0.44,1.79-0.66,3.66-0.66,5.6v25.22h-5.82V93.29c0-0.94-0.01-1.95-0.04-3.04
			c-0.03-1.09-0.06-2.15-0.09-3.17c-0.03-1.03-0.06-1.97-0.09-2.82c-0.03-0.85-0.07-1.51-0.13-1.98h5.64
			c0.12,1.12,0.21,2.47,0.26,4.06s0.09,3.09,0.09,4.5H240c0.82-2.94,2.17-5.34,4.06-7.19c1.88-1.85,4.23-2.78,7.06-2.78
			c2.35,0,4.25,0.5,5.69,1.5c1.44,1,2.54,2.31,3.31,3.92c0.76,1.62,1.28,3.44,1.54,5.47s0.4,4.04,0.4,6.04v28.22H256.22z"/>
		<path class="st5" d="M282.06,68.86c0,1.23-0.38,2.25-1.15,3.04c-0.76,0.79-1.68,1.19-2.73,1.19c-1.12,0-2.04-0.4-2.78-1.19
			c-0.74-0.79-1.1-1.81-1.1-3.04c0-1.18,0.37-2.17,1.1-3c0.73-0.82,1.66-1.23,2.78-1.23c1.12,0,2.04,0.41,2.78,1.23
			C281.69,66.68,282.06,67.68,282.06,68.86z M275.27,126.01V82.26h5.82v43.74H275.27z"/>
		<path class="st5" d="M316.72,126.01V97.79c0-1.35-0.07-2.72-0.22-4.1c-0.15-1.38-0.46-2.65-0.93-3.79
			c-0.47-1.15-1.16-2.09-2.07-2.82c-0.91-0.73-2.1-1.1-3.57-1.1c-1.47,0-2.78,0.4-3.92,1.19c-1.15,0.79-2.13,1.88-2.96,3.26
			c-0.82,1.38-1.46,2.97-1.9,4.76c-0.44,1.79-0.66,3.66-0.66,5.6v25.22h-5.82V59.33h5.82v31.22h0.18c0.76-2.82,2.09-5.14,3.97-6.97
			c1.88-1.82,4.23-2.73,7.05-2.73c2.35,0,4.25,0.5,5.69,1.5c1.44,1,2.54,2.31,3.31,3.92c0.76,1.62,1.28,3.44,1.54,5.47
			s0.4,4.04,0.4,6.04v28.22H316.72z"/>
		<path class="st5" d="M342.64,68.86c0,1.23-0.38,2.25-1.15,3.04c-0.76,0.79-1.67,1.19-2.73,1.19c-1.12,0-2.04-0.4-2.78-1.19
			c-0.74-0.79-1.1-1.81-1.1-3.04c0-1.18,0.37-2.17,1.1-3c0.73-0.82,1.66-1.23,2.78-1.23c1.12,0,2.04,0.41,2.78,1.23
			C342.28,66.68,342.64,67.68,342.64,68.86z M335.85,126.01V82.26h5.82v43.74H335.85z"/>
		<path class="st5" d="M355.25,126.01V59.33h5.82v66.67H355.25z"/>
		<path class="st5" d="M393,126.01c-0.06-0.47-0.1-1.06-0.13-1.76c-0.03-0.71-0.06-1.46-0.09-2.25c-0.03-0.79-0.04-1.56-0.04-2.29
			c0-0.73,0-1.37,0-1.9h-0.18c-1.47,6.23-5,9.35-10.58,9.35c-1.23,0-2.47-0.24-3.7-0.71c-1.23-0.47-2.35-1.23-3.35-2.29
			c-1-1.06-1.82-2.39-2.47-4.01c-0.65-1.62-0.97-3.57-0.97-5.86c0-3.17,0.56-5.73,1.68-7.67c1.12-1.94,2.53-3.47,4.23-4.59
			c1.71-1.12,3.57-1.87,5.6-2.25c2.03-0.38,3.95-0.57,5.78-0.57h3.44V96.9c0-3.82-0.71-6.61-2.12-8.38s-3.32-2.65-5.73-2.65
			c-1.65,0-3.17,0.44-4.58,1.32c-1.41,0.88-2.62,2-3.62,3.35l-3.09-3.62c1.35-1.94,3.12-3.44,5.29-4.5
			c2.17-1.06,4.35-1.59,6.53-1.59c4.59,0,7.85,1.5,9.79,4.5c1.94,3,2.91,7.38,2.91,13.14v18.17c0,0.59,0.01,1.32,0.04,2.2
			c0.03,0.88,0.06,1.78,0.09,2.69c0.03,0.91,0.07,1.76,0.13,2.56s0.12,1.43,0.18,1.9H393z M392.29,103.78h-3.53
			c-1.41,0-2.82,0.13-4.23,0.4c-1.41,0.26-2.66,0.77-3.75,1.5c-1.09,0.74-1.98,1.75-2.69,3.04c-0.71,1.29-1.06,2.97-1.06,5.03
			c0,3.06,0.67,5.26,2.03,6.61c1.35,1.35,2.82,2.03,4.41,2.03c1.65,0,3.04-0.5,4.19-1.5c1.15-1,2.06-2.26,2.73-3.79
			c0.68-1.53,1.16-3.2,1.46-5.03c0.29-1.82,0.44-3.59,0.44-5.29V103.78z"/>
		<path class="st5" d="M422.1,126.8c-0.94,0.23-1.91,0.35-2.91,0.35c-3.06,0-5.22-1.06-6.48-3.17c-1.26-2.12-1.9-4.94-1.9-8.47
			V87.03h-5.73v-4.76h5.64V70.18h5.73v12.08h7.76v4.76h-7.76v27.43c0,2.65,0.38,4.57,1.15,5.78c0.76,1.21,1.91,1.81,3.44,1.81
			c0.53,0,1.09-0.07,1.68-0.22c0.59-0.15,1.09-0.31,1.5-0.48l0.26,4.67C423.83,126.3,423.04,126.56,422.1,126.8z"/>
		<path class="st5" d="M460.2,104.22c0,3.47-0.35,6.61-1.06,9.44c-0.71,2.82-1.71,5.26-3,7.32c-1.29,2.06-2.9,3.65-4.81,4.76
			c-1.91,1.12-4.04,1.68-6.39,1.68s-4.47-0.56-6.35-1.68c-1.88-1.12-3.48-2.7-4.81-4.76c-1.32-2.06-2.34-4.5-3.04-7.32
			c-0.71-2.82-1.06-5.97-1.06-9.44c0-3.47,0.34-6.64,1.01-9.52c0.67-2.88,1.66-5.35,2.95-7.41c1.29-2.06,2.9-3.64,4.81-4.76
			c1.91-1.12,4.07-1.68,6.48-1.68c2.35,0,4.48,0.56,6.39,1.68c1.91,1.12,3.51,2.71,4.81,4.76c1.29,2.06,2.29,4.53,3,7.41
			C459.85,97.58,460.2,100.76,460.2,104.22z M454.2,104.14c0-2.59-0.19-5-0.57-7.23c-0.38-2.23-0.96-4.16-1.72-5.78
			c-0.77-1.62-1.72-2.9-2.87-3.84c-1.15-0.94-2.51-1.41-4.1-1.41c-1.59,0-2.97,0.47-4.14,1.41c-1.18,0.94-2.13,2.22-2.87,3.84
			c-0.74,1.62-1.29,3.54-1.68,5.78c-0.38,2.23-0.57,4.65-0.57,7.23c0,2.59,0.19,4.97,0.57,7.14c0.38,2.18,0.94,4.09,1.68,5.73
			c0.73,1.65,1.69,2.93,2.87,3.84c1.18,0.91,2.56,1.37,4.14,1.37c1.59,0,2.97-0.46,4.15-1.37c1.17-0.91,2.13-2.19,2.87-3.84
			c0.73-1.65,1.29-3.56,1.67-5.73C454.01,109.1,454.2,106.72,454.2,104.14z"/>
		<path class="st5" d="M481.1,83.5c1.71-1.7,3.64-2.56,5.82-2.56c0.47,0,0.82,0.03,1.06,0.09l-0.18,6c-0.24-0.06-0.46-0.1-0.66-0.13
			c-0.21-0.03-0.46-0.04-0.75-0.04c-1.47,0-2.78,0.5-3.92,1.5c-1.15,1-2.1,2.29-2.87,3.88c-0.76,1.59-1.34,3.4-1.72,5.42
			c-0.38,2.03-0.57,4.04-0.57,6.04v22.31h-5.82V93.29c0-0.94-0.02-1.95-0.04-3.04c-0.03-1.09-0.06-2.15-0.09-3.17
			c-0.03-1.03-0.06-1.97-0.09-2.82c-0.03-0.85-0.07-1.51-0.13-1.98h5.64c0.12,1.12,0.21,2.51,0.26,4.19
			c0.06,1.68,0.09,3.45,0.09,5.34h0.18C478.13,87.97,479.39,85.2,481.1,83.5z"/>
	</g>
</g>
</svg>
